<svg width="640" height="640" viewBox="0 0 640 640" fill="none" xmlns="http://www.w3.org/2000/svg">
<g clip-path="url(#clip0_5_17)">
<circle cx="320" cy="320" r="320" fill="#181818"/>
<path d="M303.803 197.64C314.528 229.815 303.578 262.291 279.353 270.241C255.128 278.191 226.778 258.541 216.053 226.365C205.328 194.19 216.278 161.715 240.503 153.765C264.728 145.815 293.078 165.465 303.803 197.64ZM203.228 276.916C217.403 301.216 213.953 329.491 195.578 339.991C177.203 350.491 150.803 339.316 136.703 315.016C122.603 290.716 125.978 262.441 144.353 251.941C162.728 241.441 189.128 252.616 203.228 276.916ZM179.828 428.866C219.128 322.891 288.953 295.966 319.928 295.966C350.903 295.966 420.728 322.891 460.028 428.866C462.728 436.141 463.928 443.941 463.928 451.741V452.941C463.928 472.291 448.253 487.966 428.903 487.966C420.278 487.966 411.728 486.916 403.403 484.816L337.403 468.316C325.928 465.466 313.928 465.466 302.453 468.316L236.453 484.816C228.128 486.916 219.578 487.966 210.953 487.966C191.603 487.966 175.928 472.291 175.928 452.941V451.741C175.928 443.941 177.128 436.141 179.828 428.866ZM444.278 339.991C425.903 329.491 422.453 301.216 436.628 276.916C450.803 252.616 477.128 241.441 495.503 251.941C513.878 262.441 517.328 290.716 503.153 315.016C488.978 339.316 462.653 350.491 444.278 339.991ZM360.503 270.241C336.278 262.291 325.328 229.815 336.053 197.64C346.778 165.465 375.128 145.815 399.353 153.765C423.578 161.715 434.528 194.19 423.803 226.365C413.078 258.541 384.728 278.191 360.503 270.241Z" fill="#DEDEDE"/>
</g>
<defs>
<clipPath id="clip0_5_17">
<rect width="640" height="640" fill="white"/>
</clipPath>
</defs>
</svg>
