<svg width="640" height="640" viewBox="0 0 640 640" fill="none" xmlns="http://www.w3.org/2000/svg">
<circle cx="320" cy="320" r="320" fill="#181818"/>
<path d="M146 200.524C185.75 200.524 218 232.823 218 272.633V337.082C240.275 303.506 276.35 279.844 318.05 273.986C337.25 319.054 381.95 350.677 434 350.677C442.175 350.677 450.2 349.851 458 348.349V488.963C458 502.259 447.275 513 434 513C420.725 513 410 502.259 410 488.963V383.202L308 464.927H350C363.275 464.927 374 475.668 374 488.963C374 502.259 363.275 513 350 513H242C202.25 513 170 480.701 170 440.89V272.633C170 260.164 160.55 249.949 148.475 248.747L143.525 248.522C131.45 247.245 122 237.029 122 224.56C122 211.265 132.725 200.524 146 200.524ZM498.35 130.817C506.15 124.282 518 129.841 518 140.056V224.56C518 271.056 480.425 308.688 434 308.688C387.575 308.688 350 271.056 350 224.56V140.056C350 129.841 361.85 124.282 369.65 130.817L410 164.469H458L498.35 130.817ZM398 209.537C389.75 209.537 383 216.298 383 224.56C383 232.823 389.75 239.583 398 239.583C406.25 239.583 413 232.823 413 224.56C413 216.298 406.25 209.537 398 209.537ZM470 209.537C461.75 209.537 455 216.298 455 224.56C455 232.823 461.75 239.583 470 239.583C478.25 239.583 485 232.823 485 224.56C485 216.298 478.25 209.537 470 209.537Z" fill="#DEDEDE"/>
</svg>
